<?xml version="1.0" encoding="UTF-8"?>
<svg version="1.1" xmlns="http://www.w3.org/2000/svg" width="512" height="512">
<path d="M0 0 C0.94937439 0.00215515 1.89874878 0.0043103 2.87689209 0.00653076 C17.07969027 0.05824469 30.98159002 0.43884777 44.9375 3.3125 C46.43821045 3.61849121 46.43821045 3.61849121 47.96923828 3.93066406 C94.0016723 13.60909778 134.1684627 35.14954859 168.5 67.125 C169.14259766 67.72280273 169.78519531 68.32060547 170.44726562 68.93652344 C183.85281368 81.63467319 195.14054545 96.71357998 204.9375 112.3125 C205.55189941 113.28195557 205.55189941 113.28195557 206.17871094 114.27099609 C222.13318348 139.65990497 232.41876252 167.8952763 237.9375 197.3125 C238.10121094 198.15377441 238.26492188 198.99504883 238.43359375 199.86181641 C249.79498196 260.74148648 234.06745998 326.44014887 199.375 377.1875 C193.16473044 385.95172927 186.27921404 394.06392295 179.0390625 401.98828125 C177.20365163 404.01815015 175.44368556 406.0895936 173.6875 408.1875 C136.9419795 450.05054733 77.84245838 475.88074845 22.9375 480.3125 C15.83811487 480.69023451 8.7326266 480.70260459 1.625 480.6875 C0.65905914 480.68695618 -0.30688171 480.68641235 -1.30209351 480.68585205 C-25.38081868 480.62371469 -47.97284809 477.27044263 -71.0625 470.3125 C-71.8870166 470.06693359 -72.7115332 469.82136719 -73.56103516 469.56835938 C-101.9128405 460.92194278 -128.35260043 446.27274871 -151.0625 427.3125 C-151.63806641 426.83844727 -152.21363281 426.36439453 -152.80664062 425.87597656 C-165.45382286 415.43891382 -176.97104024 404.26898541 -187.0625 391.3125 C-188.20912109 389.90871094 -188.20912109 389.90871094 -189.37890625 388.4765625 C-220.93306277 349.07185339 -238.46460281 298.59632708 -240.0625 248.3125 C-240.08441406 247.62687988 -240.10632813 246.94125977 -240.12890625 246.23486328 C-241.67411483 189.87338022 -222.78116387 131.43478985 -186.0625 88.3125 C-185.16229686 87.22824929 -184.26259397 86.14358313 -183.36328125 85.05859375 C-173.26823791 72.97709016 -162.50433808 61.99724073 -150.0625 52.3125 C-149.09183594 51.52488281 -148.12117188 50.73726562 -147.12109375 49.92578125 C-105.60185494 16.82471101 -52.77225787 -0.21566057 0 0 Z M-97.0625 57.3125 C-98.22394531 57.92867187 -99.38539063 58.54484375 -100.58203125 59.1796875 C-114.6884012 66.95028214 -127.39575398 76.23006513 -139.0625 87.3125 C-140.39042341 88.44388066 -141.72341589 89.5693513 -143.0625 90.6875 C-179.50310121 122.51724963 -201.39461685 172.81026131 -206.0625 220.3125 C-206.22056441 223.19671487 -206.27176565 226.07670204 -206.30078125 228.96484375 C-206.3105751 229.77387146 -206.32036896 230.58289917 -206.33045959 231.41644287 C-206.7594791 276.08466127 -197.08284774 317.78197839 -172.0625 355.3125 C-168.27428922 353.73187126 -165.81365185 351.33088747 -162.875 348.5 C-129.45340982 317.11637572 -86.90329748 296.84025881 -42.0625 288.3125 C-41.216875 288.14733887 -40.37125 287.98217773 -39.5 287.81201172 C19.60621254 276.78660517 85.24482162 291.10253181 134.73828125 324.87890625 C145.42791761 332.32453688 155.30769626 340.55373378 164.9375 349.3125 C168.91621857 353.50158749 168.91621857 353.50158749 173.9375 355.3125 C175.41877421 353.17356463 176.75398468 351.05519518 178.0625 348.8125 C178.45993408 348.13832031 178.85736816 347.46414063 179.2668457 346.76953125 C195.88897787 318.19332946 207.84050099 285.03312908 208.17578125 251.66015625 C208.1855751 250.85112854 208.19536896 250.04210083 208.20545959 249.20855713 C208.73591552 193.97908355 192.98603421 142.7296287 155.01171875 101.57421875 C153.13628414 99.52925333 151.34717467 97.43630525 149.5625 95.3125 C117.17973966 58.32485172 64.60999829 36.27173175 16.23046875 32.9609375 C-23.45271369 30.6739126 -61.94971451 38.57004733 -97.0625 57.3125 Z " fill="#5f6368" transform="translate(255.0625,15.6875)"/>
<path d="M0 0 C19.41513413 15.83036047 34.05409201 37.67987498 37 63 C39.00706443 91.38316441 34.11130766 116.2402984 15.84375 138.64453125 C-0.57892148 157.46699451 -22.83614019 171.43272251 -48.21777344 173.22753906 C-77.36373868 174.52309637 -102.3082106 168.52198278 -124.3125 148.5 C-142.38159319 131.54293965 -154.27127966 109.29505609 -155.3828125 84.2890625 C-156.09445376 55.78869783 -149.21659255 31.57486407 -129.3359375 10.37109375 C-94.83017582 -24.65398542 -39.47352935 -30.18232772 0 0 Z " fill="#5f6368" transform="translate(315,99)"/>
</svg>
